# xmcd
#
# Track frame offsets: 
#        150
#        16878
#        30055
#        50445
#        61737
#        77434
#        85588
#        101499
#        116252
#        129810
#        144369
#        160579
#        171646
#        189198
#        204997
#        220041
#        235690
#        250893
#        262686
#        284751
#        298851
#
# Disc length: 4169 seconds
#
# Revision: 0
# Processed by: cddbd v1.5.2PL0 Copyright (c) Steve Scherf et al.
# Submitted via: ExactAudioCopy v1.0b4
#
DISCID=06104715
DTITLE=Dave Earl - Mandolin Blues
DYEAR=1900
DGENRE=Blues
TTITLE0=Good woman Blues
TTITLE1=VS Blues
TTITLE2=Leavin'
TTITLE3=Jackson Stomp
TTITLE4=Sittin' On Top of the World
TTITLE5=Lightning
TTITLE6=Lonesome Blues
TTITLE7=Easy Ridin' Mama
TTITLE8=Golden Gate Blues
TTITLE9=Blues Train
TTITLE10=Sleeping Lady
TTITLE11=Florida Blues
TTITLE12=Louise
TTITLE13=Betty and Dupree
TTITLE14=Sidewalk Blues
TTITLE15=CC&O
TTITLE16=California Blues
TTITLE17=Tenessee Blues
TTITLE18=Equity Blues
TTITLE19=Goodnight Irene
TTITLE20=Mando Boogie
EXTD=
EXTT0=
EXTT1=
EXTT2=
EXTT3=
EXTT4=
EXTT5=
EXTT6=
EXTT7=
EXTT8=
EXTT9=
EXTT10=
EXTT11=
EXTT12=
EXTT13=
EXTT14=
EXTT15=
EXTT16=
EXTT17=
EXTT18=
EXTT19=
EXTT20=
PLAYORDER=
